<svg width="200" height="240" viewBox="0 0 200 240" fill="none" xmlns="http://www.w3.org/2000/svg">
<g opacity="0.3">
<path opacity="0.3" d="M139.67 49.25C134.203 49.2447 128.961 47.0704 125.095 43.2046C121.229 39.3387 119.055 34.097 119.05 28.6299V0H26.9099C19.7729 0 12.9284 2.83523 7.88184 7.88184C2.83523 12.9284 0 19.7729 0 26.9099V189.13C0 196.267 2.83523 203.112 7.88184 208.158C12.9284 213.205 19.7729 216.04 26.9099 216.04H137.51C141.045 216.041 144.545 215.346 147.811 213.994C151.077 212.643 154.045 210.661 156.545 208.162C159.045 205.663 161.028 202.696 162.381 199.43C163.734 196.165 164.43 192.665 164.43 189.13V49.25H139.67Z" fill="#FF3E4C"/>
</g>
<path d="M164.43 49.25H139.67C134.203 49.2447 128.961 47.0704 125.095 43.2046C121.229 39.3387 119.055 34.097 119.05 28.6299V0L164.43 49.25Z" fill="#FF3E4C"/>
<path d="M183.94 170.61H58.8999C50.0302 170.61 42.8401 177.8 42.8401 186.67V223.95C42.8401 232.82 50.0302 240.01 58.8999 240.01H183.94C192.81 240.01 200 232.82 200 223.95V186.67C200 177.8 192.81 170.61 183.94 170.61Z" fill="#FF3E4C"/>
<path d="M72.1419 222.443C71.0169 222.443 70.051 222.045 69.2442 221.25C68.4488 220.443 68.051 219.477 68.051 218.352C68.051 217.239 68.4488 216.284 69.2442 215.489C70.051 214.693 71.0169 214.295 72.1419 214.295C73.2328 214.295 74.1874 214.693 75.0056 215.489C75.8238 216.284 76.2328 217.239 76.2328 218.352C76.2328 219.102 76.0397 219.79 75.6533 220.415C75.2783 221.028 74.784 221.523 74.1703 221.898C73.5567 222.261 72.8806 222.443 72.1419 222.443Z" fill="white"/>
<path d="M101.268 197.131C101.132 195.756 100.547 194.687 99.5127 193.926C98.4786 193.165 97.0752 192.784 95.3024 192.784C94.0979 192.784 93.0809 192.955 92.2513 193.295C91.4218 193.625 90.7854 194.085 90.3422 194.676C89.9104 195.267 89.6945 195.937 89.6945 196.687C89.6718 197.312 89.8024 197.858 90.0865 198.324C90.382 198.79 90.7854 199.193 91.2968 199.534C91.8081 199.864 92.399 200.153 93.0695 200.403C93.7399 200.642 94.4559 200.847 95.2172 201.017L98.3536 201.767C99.8763 202.108 101.274 202.562 102.547 203.131C103.819 203.699 104.922 204.398 105.854 205.227C106.785 206.057 107.507 207.034 108.018 208.159C108.541 209.284 108.808 210.574 108.819 212.028C108.808 214.165 108.263 216.017 107.183 217.585C106.115 219.142 104.569 220.352 102.547 221.216C100.535 222.068 98.1093 222.494 95.2684 222.494C92.4502 222.494 89.9956 222.062 87.9047 221.199C85.8252 220.335 84.2002 219.057 83.0297 217.364C81.8706 215.659 81.2627 213.551 81.2059 211.04H88.3479C88.4274 212.21 88.7627 213.187 89.3536 213.972C89.9559 214.744 90.757 215.33 91.757 215.727C92.7684 216.114 93.9104 216.307 95.1831 216.307C96.4331 216.307 97.5184 216.125 98.4388 215.761C99.3706 215.398 100.092 214.892 100.604 214.244C101.115 213.597 101.371 212.852 101.371 212.011C101.371 211.227 101.138 210.568 100.672 210.034C100.217 209.5 99.5468 209.045 98.6604 208.67C97.7854 208.295 96.7115 207.955 95.4388 207.648L91.6377 206.693C88.6945 205.977 86.3706 204.858 84.6661 203.335C82.9615 201.812 82.1149 199.761 82.1263 197.182C82.1149 195.068 82.6774 193.222 83.8138 191.642C84.9615 190.062 86.5354 188.83 88.5354 187.943C90.5354 187.057 92.8081 186.614 95.3536 186.614C97.9445 186.614 100.206 187.057 102.138 187.943C104.081 188.83 105.592 190.062 106.672 191.642C107.751 193.222 108.308 195.051 108.342 197.131H101.268Z" fill="white"/>
<path d="M126.96 209.864H133.233L136.386 213.92L139.489 217.534L145.335 224.864H138.449L134.426 219.92L132.364 216.989L126.96 209.864ZM145.864 204.545C145.864 208.352 145.142 211.591 143.699 214.261C142.267 216.932 140.312 218.972 137.835 220.381C135.369 221.778 132.596 222.477 129.517 222.477C126.415 222.477 123.631 221.773 121.165 220.364C118.699 218.955 116.75 216.915 115.318 214.244C113.886 211.574 113.17 208.341 113.17 204.545C113.17 200.739 113.886 197.5 115.318 194.83C116.75 192.159 118.699 190.125 121.165 188.727C123.631 187.318 126.415 186.614 129.517 186.614C132.596 186.614 135.369 187.318 137.835 188.727C140.312 190.125 142.267 192.159 143.699 194.83C145.142 197.5 145.864 200.739 145.864 204.545ZM138.381 204.545C138.381 202.08 138.011 200 137.273 198.307C136.545 196.614 135.517 195.33 134.187 194.455C132.858 193.58 131.301 193.142 129.517 193.142C127.733 193.142 126.176 193.58 124.846 194.455C123.517 195.33 122.483 196.614 121.744 198.307C121.017 200 120.653 202.08 120.653 204.545C120.653 207.011 121.017 209.091 121.744 210.784C122.483 212.477 123.517 213.761 124.846 214.636C126.176 215.511 127.733 215.949 129.517 215.949C131.301 215.949 132.858 215.511 134.187 214.636C135.517 213.761 136.545 212.477 137.273 210.784C138.011 209.091 138.381 207.011 138.381 204.545Z" fill="white"/>
<path d="M151.331 222V187.091H158.712V215.915H173.677V222H151.331Z" fill="white"/>
<path d="M130 74C130 83.9411 108.51 92 82 92C55.4903 92 34 83.9411 34 74M130 74C130 64.0589 108.51 56 82 56C55.4903 56 34 64.0589 34 74M130 74V128C130 137.941 108.51 146 82 146C55.4903 146 34 137.941 34 128V74M130 101C130 110.941 108.51 119 82 119C55.4903 119 34 110.941 34 101" stroke="#FF3E4C" stroke-width="8"/>
</svg>
