<svg width="200" height="240" viewBox="0 0 200 240" fill="none" xmlns="http://www.w3.org/2000/svg">
<g opacity="0.3">
<path opacity="0.3" d="M139.71 49.24C134.242 49.2347 128.999 47.0609 125.132 43.1953C121.264 39.3297 119.088 34.0881 119.08 28.62V0H26.9099C19.7729 0 12.9283 2.83514 7.88171 7.88174C2.83511 12.9283 0 19.773 0 26.91V189.13C0.0105984 196.26 2.85042 203.094 7.89587 208.132C12.9413 213.17 19.7799 216 26.9099 216H137.51C144.647 216 151.491 213.165 156.538 208.118C161.585 203.072 164.42 196.227 164.42 189.09V49.24H139.71Z" fill="#007BFF"/>
</g>
<path d="M164.42 49.24H139.71C134.242 49.2347 128.999 47.0609 125.132 43.1953C121.264 39.3297 119.088 34.0881 119.08 28.62V0L164.42 49.24Z" fill="#007BFF"/>
<path d="M183.94 170.6H58.8998C50.0301 170.6 42.8398 177.79 42.8398 186.66V223.94C42.8398 232.81 50.0301 240 58.8998 240H183.94C192.81 240 200 232.81 200 223.94V186.66C200 177.79 192.81 170.6 183.94 170.6Z" fill="#007BFF"/>
<path d="M67.11 154.14H64.8999C59.7999 154.14 55.7366 152.643 52.71 149.65C49.6833 146.657 48.1733 142.613 48.1799 137.52V121.2C48.1799 114.96 45.6966 111.84 40.73 111.84V104.18C45.6966 104.18 48.1799 101.06 48.1799 94.8199V78.4999C48.1799 73.3999 49.69 69.3532 52.71 66.3599C55.73 63.3666 59.7932 61.8732 64.8999 61.8799H67.11V69.5399H65.6C59.6 69.5399 56.6 72.9299 56.6 79.7099V96.4299C56.5266 102.43 54.1933 106.223 49.6 107.81V108.21C54.1 109.69 56.4333 113.383 56.6 119.29V136.29C56.6 143.07 59.6 146.46 65.6 146.46H67.11V154.14Z" fill="#007BFF"/>
<path d="M97.2998 154.14V146.48H98.8098C104.81 146.48 107.81 143.09 107.81 136.31V119.31C107.943 113.397 110.276 109.703 114.81 108.23V107.83C110.236 106.217 107.903 102.423 107.81 96.4499V79.7299C107.81 72.9499 104.81 69.5599 98.8098 69.5599H97.2998V61.8999H99.5199C104.62 61.8999 108.68 63.3932 111.7 66.3799C114.72 69.3666 116.233 73.4132 116.24 78.5199V94.8399C116.24 101.08 118.723 104.2 123.69 104.2V111.86C118.723 111.86 116.24 114.98 116.24 121.22V137.54C116.24 142.64 114.726 146.683 111.7 149.67C108.673 152.657 104.613 154.153 99.5199 154.16L97.2998 154.14Z" fill="#007BFF"/>
<path d="M81.38 86.1699C85.0417 86.1699 88.01 83.2017 88.01 79.54C88.01 75.8784 85.0417 72.9099 81.38 72.9099C77.7184 72.9099 74.75 75.8784 74.75 79.54C74.75 83.2017 77.7184 86.1699 81.38 86.1699Z" fill="#007BFF"/>
<path d="M81.38 114.64C85.0417 114.64 88.01 111.672 88.01 108.01C88.01 104.348 85.0417 101.38 81.38 101.38C77.7184 101.38 74.75 104.348 74.75 108.01C74.75 111.672 77.7184 114.64 81.38 114.64Z" fill="#007BFF"/>
<path d="M81.38 143.11C85.0417 143.11 88.01 140.142 88.01 136.48C88.01 132.818 85.0417 129.85 81.38 129.85C77.7184 129.85 74.75 132.818 74.75 136.48C74.75 140.142 77.7184 143.11 81.38 143.11Z" fill="#007BFF"/>
<path d="M55.1419 222.443C54.0169 222.443 53.051 222.045 52.2442 221.25C51.4488 220.443 51.051 219.477 51.051 218.352C51.051 217.239 51.4488 216.284 52.2442 215.489C53.051 214.693 54.0169 214.295 55.1419 214.295C56.2328 214.295 57.1874 214.693 58.0056 215.489C58.8238 216.284 59.2328 217.239 59.2328 218.352C59.2328 219.102 59.0397 219.79 58.6533 220.415C58.2783 221.028 57.784 221.523 57.1703 221.898C56.5567 222.261 55.8806 222.443 55.1419 222.443Z" fill="white"/>
<path d="M79.3081 187.091H86.6036V211.432C86.6036 213.682 86.0979 215.636 85.0865 217.295C84.0865 218.955 82.6945 220.233 80.9104 221.131C79.1263 222.028 77.0524 222.477 74.6888 222.477C72.5865 222.477 70.6774 222.108 68.9615 221.369C67.257 220.619 65.9047 219.483 64.9047 217.96C63.9047 216.426 63.4104 214.5 63.4218 212.182H70.7684C70.7911 213.102 70.9786 213.892 71.3309 214.551C71.6945 215.199 72.1888 215.699 72.8138 216.051C73.4502 216.392 74.2002 216.563 75.0638 216.563C75.9729 216.563 76.7399 216.369 77.3649 215.983C78.0013 215.585 78.4843 215.006 78.8138 214.244C79.1434 213.483 79.3081 212.545 79.3081 211.432V187.091Z" fill="white"/>
<path d="M111.643 197.131C111.507 195.756 110.922 194.688 109.888 193.926C108.854 193.165 107.45 192.784 105.677 192.784C104.473 192.784 103.456 192.955 102.626 193.295C101.797 193.625 101.16 194.085 100.717 194.676C100.285 195.267 100.069 195.938 100.069 196.688C100.047 197.313 100.177 197.858 100.462 198.324C100.757 198.79 101.16 199.193 101.672 199.534C102.183 199.864 102.774 200.153 103.444 200.403C104.115 200.642 104.831 200.847 105.592 201.017L108.729 201.767C110.251 202.108 111.649 202.563 112.922 203.131C114.194 203.699 115.297 204.398 116.229 205.227C117.16 206.057 117.882 207.034 118.393 208.159C118.916 209.284 119.183 210.574 119.194 212.028C119.183 214.165 118.638 216.017 117.558 217.585C116.49 219.142 114.944 220.352 112.922 221.216C110.91 222.068 108.484 222.494 105.643 222.494C102.825 222.494 100.371 222.063 98.2797 221.199C96.2002 220.335 94.5752 219.057 93.4047 217.364C92.2456 215.659 91.6377 213.551 91.5809 211.04H98.7229C98.8024 212.21 99.1377 213.188 99.7286 213.972C100.331 214.744 101.132 215.33 102.132 215.727C103.143 216.114 104.285 216.307 105.558 216.307C106.808 216.307 107.893 216.125 108.814 215.761C109.746 215.398 110.467 214.892 110.979 214.244C111.49 213.597 111.746 212.852 111.746 212.011C111.746 211.227 111.513 210.568 111.047 210.034C110.592 209.5 109.922 209.045 109.035 208.67C108.16 208.295 107.087 207.955 105.814 207.648L102.013 206.693C99.0695 205.977 96.7456 204.858 95.0411 203.335C93.3365 201.813 92.4899 199.761 92.5013 197.182C92.4899 195.068 93.0524 193.222 94.1888 191.642C95.3365 190.063 96.9104 188.83 98.9104 187.943C100.91 187.057 103.183 186.614 105.729 186.614C108.319 186.614 110.581 187.057 112.513 187.943C114.456 188.83 115.967 190.063 117.047 191.642C118.126 193.222 118.683 195.051 118.717 197.131H111.643Z" fill="white"/>
<path d="M156.239 204.545C156.239 208.352 155.517 211.591 154.074 214.261C152.642 216.932 150.687 218.972 148.21 220.381C145.744 221.778 142.971 222.477 139.892 222.477C136.79 222.477 134.006 221.773 131.54 220.364C129.074 218.955 127.125 216.915 125.693 214.244C124.261 211.574 123.545 208.341 123.545 204.545C123.545 200.739 124.261 197.5 125.693 194.83C127.125 192.159 129.074 190.125 131.54 188.727C134.006 187.318 136.79 186.614 139.892 186.614C142.971 186.614 145.744 187.318 148.21 188.727C150.687 190.125 152.642 192.159 154.074 194.83C155.517 197.5 156.239 200.739 156.239 204.545ZM148.756 204.545C148.756 202.08 148.386 200 147.648 198.307C146.92 196.614 145.892 195.33 144.562 194.455C143.233 193.58 141.676 193.142 139.892 193.142C138.108 193.142 136.551 193.58 135.221 194.455C133.892 195.33 132.858 196.614 132.119 198.307C131.392 200 131.028 202.08 131.028 204.545C131.028 207.011 131.392 209.091 132.119 210.784C132.858 212.477 133.892 213.761 135.221 214.636C136.551 215.511 138.108 215.949 139.892 215.949C141.676 215.949 143.233 215.511 144.562 214.636C145.892 213.761 146.92 212.477 147.648 210.784C148.386 209.091 148.756 207.011 148.756 204.545Z" fill="white"/>
<path d="M190.905 187.091V222H184.53L169.342 200.028H169.087V222H161.706V187.091H168.183L183.251 209.045H183.558V187.091H190.905Z" fill="white"/>
</svg>
