<svg width="64" height="46" viewBox="0 0 64 46" fill="none" xmlns="http://www.w3.org/2000/svg">
<path d="M13 45.0101H54C68 45.0101 65 20.5101 54 20.5101C56 6.51011 43.5 5.51011 39 8.51011C35.8 2.91011 29.3333 1.17678 26.5 1.01011C12.9 0.610112 9.5 12.1768 9.5 18.0101C8.5 19.0101 1 23.0101 1 33.0101C1 41.0101 9 44.3434 13 45.0101Z" fill="#333333" stroke="#333333"/>
<path d="M33 18V38" stroke="#F5F5F5" stroke-width="4" stroke-linecap="round"/>
<path d="M33 18L42 27" stroke="#F5F5F5" stroke-width="4" stroke-linecap="round"/>
<path d="M33 18L42 27" stroke="#F5F5F5" stroke-width="4" stroke-linecap="round"/>
<path d="M33 18L42 27" stroke="#F5F5F5" stroke-width="4" stroke-linecap="round"/>
<path d="M33 18L24 27" stroke="#F5F5F5" stroke-width="4" stroke-linecap="round"/>
<path d="M33 18L24 27" stroke="#F5F5F5" stroke-width="4" stroke-linecap="round"/>
<path d="M33 18L24 27" stroke="#F5F5F5" stroke-width="4" stroke-linecap="round"/>
</svg>
