<svg width="64" height="46" viewBox="0 0 64 46" fill="none" xmlns="http://www.w3.org/2000/svg">
<path d="M13 45.0405H54C68 45.0405 65 20.5405 54 20.5405C56 6.54046 43.5 5.54046 39 8.54046C35.8 2.94046 29.3333 1.20713 26.5 1.04046C12.9 0.640462 9.5 12.2071 9.5 18.0405C8.5 19.0405 1 23.0405 1 33.0405C1 41.0405 9 44.3738 13 45.0405Z" fill="#6C757D" stroke="#6C757D"/>
<path d="M33 18.0303V38.0303" stroke="#F5F5F5" stroke-width="4" stroke-linecap="round"/>
<path d="M33 18.0303L42 27.0303" stroke="#F5F5F5" stroke-width="4" stroke-linecap="round"/>
<path d="M33 18.0303L42 27.0303" stroke="#F5F5F5" stroke-width="4" stroke-linecap="round"/>
<path d="M33 18.0303L42 27.0303" stroke="#F5F5F5" stroke-width="4" stroke-linecap="round"/>
<path d="M33 18.0303L24 27.0303" stroke="#F5F5F5" stroke-width="4" stroke-linecap="round"/>
<path d="M33 18.0303L24 27.0303" stroke="#F5F5F5" stroke-width="4" stroke-linecap="round"/>
<path d="M33 18.0303L24 27.0303" stroke="#F5F5F5" stroke-width="4" stroke-linecap="round"/>
</svg>
