<svg width="64" height="46" viewBox="0 0 64 46" fill="none" xmlns="http://www.w3.org/2000/svg">
<path d="M13 45.0303H54C68 45.0303 65 20.5303 54 20.5303C56 6.53035 43.5 5.53035 39 8.53035C35.8 2.93035 29.3333 1.19701 26.5 1.03035C12.9 0.630345 9.5 12.197 9.5 18.0303C8.5 19.0303 1 23.0303 1 33.0303C1 41.0303 9 44.3637 13 45.0303Z" fill="#80BDFF" stroke="#80BDFF"/>
<path d="M33 18.0202V38.0202" stroke="#F5F5F5" stroke-width="4" stroke-linecap="round"/>
<path d="M33 18.0202L42 27.0202" stroke="#F5F5F5" stroke-width="4" stroke-linecap="round"/>
<path d="M33 18.0202L42 27.0202" stroke="#F5F5F5" stroke-width="4" stroke-linecap="round"/>
<path d="M33 18.0202L42 27.0202" stroke="#F5F5F5" stroke-width="4" stroke-linecap="round"/>
<path d="M33 18.0202L24 27.0202" stroke="#F5F5F5" stroke-width="4" stroke-linecap="round"/>
<path d="M33 18.0202L24 27.0202" stroke="#F5F5F5" stroke-width="4" stroke-linecap="round"/>
<path d="M33 18.0202L24 27.0202" stroke="#F5F5F5" stroke-width="4" stroke-linecap="round"/>
</svg>
