<svg width="64" height="46" viewBox="0 0 64 46" fill="none" xmlns="http://www.w3.org/2000/svg">
<path d="M13 45.0202H54C68 45.0202 65 20.5202 54 20.5202C56 6.52023 43.5 5.52023 39 8.52023C35.8 2.92023 29.3333 1.1869 26.5 1.02023C12.9 0.620229 9.5 12.1869 9.5 18.0202C8.5 19.0202 1 23.0202 1 33.0202C1 41.0202 9 44.3536 13 45.0202Z" fill="#DC3545" stroke="#DC3545"/>
<path d="M33 18.0101V38.0101" stroke="#F5F5F5" stroke-width="4" stroke-linecap="round"/>
<path d="M33 18.0101L42 27.0101" stroke="#F5F5F5" stroke-width="4" stroke-linecap="round"/>
<path d="M33 18.0101L42 27.0101" stroke="#F5F5F5" stroke-width="4" stroke-linecap="round"/>
<path d="M33 18.0101L42 27.0101" stroke="#F5F5F5" stroke-width="4" stroke-linecap="round"/>
<path d="M33 18.0101L24 27.0101" stroke="#F5F5F5" stroke-width="4" stroke-linecap="round"/>
<path d="M33 18.0101L24 27.0101" stroke="#F5F5F5" stroke-width="4" stroke-linecap="round"/>
<path d="M33 18.0101L24 27.0101" stroke="#F5F5F5" stroke-width="4" stroke-linecap="round"/>
</svg>
